<svg width="300" height="300" viewBox="0 0 50 50" fill="none" xmlns="http://www.w3.org/2000/svg">
<g filter="url(#filter0_i_1775_46318)">
<path fill-rule="evenodd" clip-rule="evenodd" d="M26.2015 37.7723C26.8637 37.11 26.8639 36.0364 26.2017 35.3741C25.5395 34.7119 24.4655 34.7119 23.8033 35.374C23.141 36.0364 23.1413 37.11 23.8035 37.7723C24.4658 38.4347 25.5395 38.4346 26.2015 37.7723V37.7723Z" fill="url(#paint0_radial_1775_46318)"/>
<path fill-rule="evenodd" clip-rule="evenodd" d="M15.4314 21.6919C16.368 21.6919 17.127 20.9328 17.127 19.996C17.127 19.0594 16.368 18.3001 15.4314 18.3001C14.4947 18.3001 13.7355 19.0594 13.7355 19.996C13.7355 20.9328 14.4947 21.6919 15.4314 21.6919Z" fill="url(#paint1_radial_1775_46318)"/>
<path fill-rule="evenodd" clip-rule="evenodd" d="M25.0026 45.2534C23.6918 45.2534 22.6292 46.3158 22.6292 47.6266C22.6292 48.9374 23.6918 50 25.0026 50C26.3132 50 27.376 48.9374 27.376 47.6266C27.376 46.3158 26.3132 45.2534 25.0026 45.2534Z" fill="url(#paint2_radial_1775_46318)"/>
<path fill-rule="evenodd" clip-rule="evenodd" d="M34.5732 11.3159C35.8837 11.3159 36.9463 10.2534 36.9463 8.94259C36.9463 7.63164 35.8837 6.56917 34.5732 6.56917C33.2624 6.56949 32.1996 7.63195 32.1996 8.94259C32.1996 10.2536 33.2624 11.3161 34.5732 11.3159V11.3159Z" fill="url(#paint3_radial_1775_46318)"/>
<path fill-rule="evenodd" clip-rule="evenodd" d="M22.7364 5.96473C24.3528 7.74562 25.4003 11.6516 23.8036 13.2482C23.8036 13.2482 23.8036 13.2483 23.8034 13.2483C23.4697 13.582 23.3046 14.0202 23.3073 14.4574C23.3053 14.894 23.4705 15.3311 23.8036 15.6642C25.4483 17.309 24.2873 21.4047 22.5887 23.1034C21.2558 24.4365 21.2558 26.5977 22.5887 27.9308C23.9219 29.2639 26.0833 29.264 27.4161 27.9308C28.7493 26.5977 28.7493 24.4362 27.4161 23.1034C25.7178 21.4049 24.557 17.3099 26.2007 15.6648C26.201 15.6645 26.2012 15.6644 26.2016 15.6642C26.5353 15.3304 26.7003 14.8922 26.6978 14.455C26.6997 14.0183 26.5343 13.5814 26.2016 13.2482C24.6049 11.6514 25.6523 7.7454 27.2688 5.96454C27.9723 5.33912 28.4159 4.4279 28.4159 3.41291C28.4159 1.52756 26.8876 -0.000748638 25.0025 -0.000748803C23.1171 -0.000748968 21.5889 1.52756 21.5889 3.41291C21.5889 4.428 22.0329 5.33944 22.7364 5.96473V5.96473Z" fill="url(#paint4_radial_1775_46318)"/>
<path fill-rule="evenodd" clip-rule="evenodd" d="M7.05808 26.7265C7.7203 26.0643 7.7203 24.9907 7.05808 24.3283C6.39576 23.6661 5.32225 23.666 4.65993 24.3283C3.99768 24.9907 3.99768 26.0643 4.65993 26.7265C5.54204 27.6086 6.2203 32.8614 4.18067 34.901C3.25391 35.8279 3.25391 37.3305 4.18098 38.2576C5.10762 39.1843 6.61017 39.1843 7.53712 38.2576C8.46419 37.3305 8.46419 35.8279 7.53712 34.901C5.49751 32.8614 6.17585 27.6086 7.05808 26.7265V26.7265Z" fill="url(#paint5_radial_1775_46318)"/>
<path fill-rule="evenodd" clip-rule="evenodd" d="M17.1096 32.7294C18.0364 31.8027 18.0364 30.2999 17.1095 29.3729C16.1828 28.4462 14.6801 28.4462 13.7533 29.3729C12.8262 30.2999 12.8262 31.8027 13.7533 32.7294C15.7928 34.769 15.1146 40.0217 14.2322 40.9038C13.57 41.5661 13.57 42.6398 14.2322 43.3022C14.8945 43.9643 15.9682 43.9644 16.6304 43.3022C17.2927 42.6398 17.2927 41.5661 16.6304 40.9038C15.7485 40.0218 15.07 34.7701 17.1092 32.7301C17.1092 32.7297 17.1095 32.7296 17.1096 32.7294V32.7294Z" fill="url(#paint6_radial_1775_46318)"/>
<path fill-rule="evenodd" clip-rule="evenodd" d="M42.4669 34.8991C42.1604 35.2054 41.9577 35.5749 41.8537 35.9654L41.852 35.9622C41.1055 38.7484 36.2174 40.7873 35.0124 40.4644L35.0138 40.467C34.8734 40.4293 34.7262 40.4073 34.5739 40.4073C33.6372 40.4073 32.8779 41.1665 32.8779 42.1029C32.8779 43.0395 33.6375 43.7988 34.5739 43.7988C35.3593 43.7988 36.0179 43.2643 36.2107 42.54L36.2115 42.5412C36.5342 41.3364 40.7433 38.123 43.5294 38.8687C43.5296 38.8688 43.5301 38.8689 43.5304 38.8691L43.5294 38.8675C44.3216 39.0796 45.2015 38.8771 45.8233 38.2556C46.7503 37.3286 46.7503 35.8259 45.8233 34.8991C43.7837 32.8595 44.462 27.6067 45.3443 26.7246L45.3436 26.7246C45.3439 26.7245 45.3441 26.7242 45.3443 26.7241C46.0066 26.0618 46.0066 24.9882 45.3443 24.3259C44.462 23.4437 43.784 18.1922 45.8228 16.1521C45.8231 16.1517 45.8233 16.1516 45.8236 16.1514C46.7503 15.2246 46.7503 13.7218 45.8233 12.795C44.8966 11.8682 43.3938 11.8682 42.4671 12.795C41.5401 13.7218 41.5401 15.2246 42.4669 16.1514C44.5065 18.191 43.8281 23.4436 42.9461 24.3259C42.2839 24.9882 42.2839 26.0618 42.9461 26.7241C42.9461 26.7242 42.9464 26.7245 42.9466 26.7246L42.9461 26.7246C43.8281 27.6066 44.5065 32.8585 42.4676 34.8983C42.4674 34.8986 42.467 34.8988 42.4669 34.8991V34.8991Z" fill="url(#paint7_radial_1775_46318)"/>
<path fill-rule="evenodd" clip-rule="evenodd" d="M32.8956 29.3712C31.9688 30.2981 31.9688 31.8008 32.8956 32.7277C33.8225 33.6546 35.3253 33.6545 36.252 32.7277C37.179 31.8007 37.179 30.2981 36.252 29.3712C34.3878 27.5069 34.7288 23.2 36.2515 21.6762C36.2517 21.6759 36.252 21.6757 36.2522 21.6755C37.179 20.7487 37.179 19.2461 36.252 18.3191C35.3253 17.3922 33.8225 17.3922 32.8958 18.3191C31.9688 19.2461 31.9688 20.7487 32.8956 21.6755C34.4188 23.1987 34.7603 27.5066 32.8956 29.3712Z" fill="url(#paint8_radial_1775_46318)"/>
<path fill-rule="evenodd" clip-rule="evenodd" d="M5.24501 16.7642C6.51125 17.1035 7.81269 16.3521 8.15185 15.0861C8.7094 13.0053 12.2694 10.5556 14.8164 11.2382C16.0825 11.5772 17.384 10.8257 17.7232 9.5598C18.0625 8.29357 17.3111 6.99225 16.0449 6.65328C14.7789 6.31399 13.4776 7.06506 13.1382 8.3314C12.4561 10.8774 8.55757 12.7352 6.47595 12.1798C6.47525 12.1796 6.47422 12.1793 6.47352 12.1791C5.2075 11.84 3.90616 12.5915 3.5669 13.8577C3.22761 15.1233 3.97899 16.425 5.24501 16.7642V16.7642Z" fill="url(#paint9_radial_1775_46318)"/>
</g>
<defs>
<filter id="filter0_i_1775_46318" x="0" y="-0.000976562" width="50" height="50.001" filterUnits="userSpaceOnUse" color-interpolation-filters="sRGB">
<feFlood flood-opacity="0" result="BackgroundImageFix"/>
<feBlend mode="normal" in="SourceGraphic" in2="BackgroundImageFix" result="shape"/>
<feColorMatrix in="SourceAlpha" type="matrix" values="0 0 0 0 0 0 0 0 0 0 0 0 0 0 0 0 0 0 127 0" result="hardAlpha"/>
<feOffset/>
<feGaussianBlur stdDeviation="0.497222"/>
<feComposite in2="hardAlpha" operator="arithmetic" k2="-1" k3="1"/>
<feColorMatrix type="matrix" values="0 0 0 0 1 0 0 0 0 1 0 0 0 0 1 0 0 0 0.2 0"/>
<feBlend mode="normal" in2="shape" result="effect1_innerShadow_1775_46318"/>
</filter>
<radialGradient id="paint0_radial_1775_46318" cx="0" cy="0" r="1" gradientUnits="userSpaceOnUse" gradientTransform="translate(26.3779 37.8489) rotate(-135.946) scale(4.27339 7.71679)">
<stop stop-color="#F4D52B"/>
<stop offset="1" stop-color="#FFD90B"/>
</radialGradient>
<radialGradient id="paint1_radial_1775_46318" cx="0" cy="0" r="1" gradientUnits="userSpaceOnUse" gradientTransform="translate(16.8066 21.2717) rotate(-135.944) scale(4.27343 7.71687)">
<stop stop-color="#F4D52B"/>
<stop offset="1" stop-color="#FFD90B"/>
</radialGradient>
<radialGradient id="paint2_radial_1775_46318" cx="0" cy="0" r="1" gradientUnits="userSpaceOnUse" gradientTransform="translate(26.9277 49.4119) rotate(-135.947) scale(5.98083 10.8)">
<stop stop-color="#F4D52B"/>
<stop offset="1" stop-color="#FFD90B"/>
</radialGradient>
<radialGradient id="paint3_radial_1775_46318" cx="0" cy="0" r="1" gradientUnits="userSpaceOnUse" gradientTransform="translate(36.498 10.7278) rotate(-135.946) scale(5.98083 10.8)">
<stop stop-color="#F4D52B"/>
<stop offset="1" stop-color="#FFD90B"/>
</radialGradient>
<radialGradient id="paint4_radial_1775_46318" cx="0" cy="0" r="1" gradientUnits="userSpaceOnUse" gradientTransform="translate(27.7712 25.3464) rotate(-103.707) scale(26.0902 21.7038)">
<stop stop-color="#F4D52B"/>
<stop offset="1" stop-color="#FFD90B"/>
</radialGradient>
<radialGradient id="paint5_radial_1775_46318" cx="0" cy="0" r="1" gradientUnits="userSpaceOnUse" gradientTransform="translate(7.78412 37.0793) rotate(-107.977) scale(13.9276 14.7744)">
<stop stop-color="#F4D52B"/>
<stop offset="1" stop-color="#FFD90B"/>
</radialGradient>
<radialGradient id="paint6_radial_1775_46318" cx="0" cy="0" r="1" gradientUnits="userSpaceOnUse" gradientTransform="translate(17.3564 41.9255) rotate(-107.976) scale(13.9275 14.7741)">
<stop stop-color="#F4D52B"/>
<stop offset="1" stop-color="#FFD90B"/>
</radialGradient>
<radialGradient id="paint7_radial_1775_46318" cx="0" cy="0" r="1" gradientUnits="userSpaceOnUse" gradientTransform="translate(45.2303 39.8717) rotate(-113.979) scale(30.3949 40.7833)">
<stop stop-color="#F4D52B"/>
<stop offset="1" stop-color="#FFD90B"/>
</radialGradient>
<radialGradient id="paint8_radial_1775_46318" cx="0" cy="0" r="1" gradientUnits="userSpaceOnUse" gradientTransform="translate(36.499 31.4655) rotate(-107.252) scale(14.4937 14.8338)">
<stop stop-color="#F4D52B"/>
<stop offset="1" stop-color="#FFD90B"/>
</radialGradient>
<radialGradient id="paint9_radial_1775_46318" cx="0" cy="0" r="1" gradientUnits="userSpaceOnUse" gradientTransform="translate(16.4523 15.5729) rotate(-145.233) scale(15.7848 26.7191)">
<stop stop-color="#F4D52B"/>
<stop offset="1" stop-color="#FFD90B"/>
</radialGradient>
</defs>
</svg>
